ffmpeg started on 2025-06-03 at 19:34:13
Report written to "D:\Convert\FFMetrics\reports\ssim_report-6.txt"
Log level: 32
Command line:
ffmpeg -hide_banner -nostdin -i "G:\\\xc0\xed\xe8\xec\xe5\\\xce\xed\xe3\xee\xe8\xed\xe3\xe8\\!_36_\xce\xf1\xe5\xed\xfc_2024\\DreamCast\\\xc1\xe0\xf8\xed\xff \xc1\xee\xe3\xe0\\\xd2\xc2-2\\[DC] Kami no Tou - Ouji no Kikan - 07_Telegram_HEVC.mkv" -i "G:\\\xc0\xed\xe8\xec\xe5\\\xce\xed\xe3\xee\xe8\xed\xe3\xe8\\!_36_\xce\xf1\xe5\xed\xfc_2024\\DreamCast\\\xc1\xe0\xf8\xed\xff \xc1\xee\xe3\xe0\\\xd2\xc2-2\\[DC] Kami no Tou - Ouji no Kikan - 07_Telegram.mp4" -lavfi "[0:v]settb=AVTB,setpts=PTS-STARTPTS,format=pix_fmts=yuv420p10,fps=24000/1001,scale=1920:1080:flags=bicubic[main];[1:v]settb=AVTB,setpts=PTS-STARTPTS,format=pix_fmts=yuv420p,fps=24000/1001,scale=1920:1080:flags=bicubic[ref];[main][ref]ssim=eof_action=endall:stats_file='D\\:/Convert/FFMetrics/logs/ssim_logfile-6.txt'" -f null -
Input #0, matroska,webm, from 'G:\Аниме\Онгоинги\!_36_Осень_2024\DreamCast\Башня Бога\ТВ-2\[DC] Kami no Tou - Ouji no Kikan - 07_Telegram_HEVC.mkv':
  Metadata:
    COMPATIBLE_BRANDS: isomiso2avc1mp41
    MAJOR_BRAND     : isom
    MINOR_VERSION   : 512
    ENCODER         : Lavf61.7.100
  Duration: 00:23:47.93, start: -0.021000, bitrate: 1262 kb/s
  Stream #0:0: Video: hevc (Main 10), yuv420p10le(tv, bt709, progressive), 1920x1080 [SAR 1:1 DAR 16:9], 23.98 fps, 23.98 tbr, 1k tbn (default)
      Metadata:
        HANDLER_NAME    : VideoHandler
        VENDOR_ID       : [0][0][0][0]
        ENCODER         : Lavc61.19.100 libx265
        BPS             : 1064605
        DURATION        : 00:23:47.592708333
        NUMBER_OF_FRAMES: 34228
        NUMBER_OF_BYTES : 189977805
        _STATISTICS_WRITING_APP: mkvpropedit v66.0.0 ('Josie') 64-bit
        _STATISTICS_WRITING_DATE_UTC: 2025-05-29 16:47:45
        _STATISTICS_TAGS: BPS DURATION NUMBER_OF_FRAMES NUMBER_OF_BYTES
  Stream #0:1: Audio: aac (LC), 48000 Hz, stereo, fltp (default)
      Metadata:
        HANDLER_NAME    : SoundHandler
        VENDOR_ID       : [0][0][0][0]
        ENCODER         : Lavc61.19.100 aac
        BPS             : 193649
        DURATION        : 00:23:47.925000000
        NUMBER_OF_FRAMES: 66935
        NUMBER_OF_BYTES : 34564696
        _STATISTICS_WRITING_APP: mkvpropedit v66.0.0 ('Josie') 64-bit
        _STATISTICS_WRITING_DATE_UTC: 2025-05-29 16:47:45
        _STATISTICS_TAGS: BPS DURATION NUMBER_OF_FRAMES NUMBER_OF_BYTES
Input #1, mov,mp4,m4a,3gp,3g2,mj2, from 'G:\Аниме\Онгоинги\!_36_Осень_2024\DreamCast\Башня Бога\ТВ-2\[DC] Kami no Tou - Ouji no Kikan - 07_Telegram.mp4':
  Metadata:
    major_brand     : isom
    minor_version   : 512
    compatible_brands: isomiso2avc1mp41
    encoder         : Lavf60.16.100
  Duration: 00:23:47.89, start: 0.000000, bitrate: 3271 kb/s
  Stream #1:0[0x1](und): Video: h264 (High) (avc1 / 0x31637661), yuv420p(tv, bt709, progressive), 1920x1080 [SAR 1:1 DAR 16:9], 3124 kb/s, 23.98 fps, 23.98 tbr, 24k tbn (default)
      Metadata:
        handler_name    : VideoHandler
        vendor_id       : [0][0][0][0]
        encoder         : Lavc60.31.102 h264_qsv
  Stream #1:1[0x2](und): Audio: aac (HE-AACv2) (mp4a / 0x6134706D), 48000 Hz, stereo, fltp, 144 kb/s (default)
      Metadata:
        handler_name    : SoundHandler
        vendor_id       : [0][0][0][0]
Stream mapping:
  Stream #0:0 (hevc) -> settb:default
  Stream #1:0 (h264) -> settb:default
  ssim:default -> Stream #0:0 (wrapped_avframe)
  Stream #0:1 -> #0:1 (aac (native) -> pcm_s16le (native))
Output #0, null, to 'pipe:':
  Metadata:
    COMPATIBLE_BRANDS: isomiso2avc1mp41
    MAJOR_BRAND     : isom
    MINOR_VERSION   : 512
    encoder         : Lavf61.7.100
  Stream #0:0: Video: wrapped_avframe, yuv420p10le(tv, bt709, progressive), 1920x1080 [SAR 1:1 DAR 16:9], q=2-31, 200 kb/s, 23.98 fps, 23.98 tbn
      Metadata:
        encoder         : Lavc61.19.100 wrapped_avframe
  Stream #0:1: Audio: pcm_s16le, 48000 Hz, stereo, s16, 1536 kb/s (default)
      Metadata:
        HANDLER_NAME    : SoundHandler
        VENDOR_ID       : [0][0][0][0]
        _STATISTICS_TAGS: BPS DURATION NUMBER_OF_FRAMES NUMBER_OF_BYTES
        BPS             : 193649
        DURATION        : 00:23:47.925000000
        NUMBER_OF_FRAMES: 66935
        NUMBER_OF_BYTES : 34564696
        _STATISTICS_WRITING_APP: mkvpropedit v66.0.0 ('Josie') 64-bit
        _STATISTICS_WRITING_DATE_UTC: 2025-05-29 16:47:45
        encoder         : Lavc61.19.100 pcm_s16le
frame=  184 fps=0.0 q=-0.0 size=N/A time=00:00:07.67 bitrate=N/A speed=14.9x    frame=  442 fps=424 q=-0.0 size=N/A time=00:00:18.43 bitrate=N/A speed=17.7x    frame=  711 fps=460 q=-0.0 size=N/A time=00:00:29.65 bitrate=N/A speed=19.2x    frame= 1005 fps=486 q=-0.0 size=N/A time=00:00:41.91 bitrate=N/A speed=20.3x    frame= 1267 fps=492 q=-0.0 size=N/A time=00:00:52.84 bitrate=N/A speed=20.5x    frame= 1538 fps=496 q=-0.0 size=N/A time=00:01:04.14 bitrate=N/A speed=20.7x    frame= 1787 fps=495 q=-0.0 size=N/A time=00:01:14.53 bitrate=N/A speed=20.7x    frame= 2072 fps=502 q=-0.0 size=N/A time=00:01:26.41 bitrate=N/A speed=20.9x    frame= 2310 fps=498 q=-0.0 size=N/A time=00:01:36.34 bitrate=N/A speed=20.8x    frame= 2583 fps=500 q=-0.0 size=N/A time=00:01:47.73 bitrate=N/A speed=20.9x    frame= 2874 fps=507 q=-0.0 size=N/A time=00:01:59.86 bitrate=N/A speed=21.1x    frame= 3135 fps=506 q=-0.0 size=N/A time=00:02:10.75 bitrate=N/A speed=21.1x    frame= 3396 fps=506 q=-0.0 size=N/A time=00:02:21.64 bitrate=N/A speed=21.1x    frame= 3640 fps=504 q=-0.0 size=N/A time=00:02:31.81 bitrate=N/A speed=  21x    frame= 3867 fps=500 q=-0.0 size=N/A time=00:02:41.28 bitrate=N/A speed=20.9x    frame= 4096 fps=496 q=-0.0 size=N/A time=00:02:50.83 bitrate=N/A speed=20.7x    frame= 4302 fps=491 q=-0.0 size=N/A time=00:02:59.42 bitrate=N/A speed=20.5x    frame= 4527 fps=487 q=-0.0 size=N/A time=00:03:08.81 bitrate=N/A speed=20.3x    frame= 4696 fps=479 q=-0.0 size=N/A time=00:03:15.86 bitrate=N/A speed=  20x    frame= 4832 fps=468 q=-0.0 size=N/A time=00:03:21.53 bitrate=N/A speed=19.5x    frame= 4987 fps=460 q=-0.0 size=N/A time=00:03:27.99 bitrate=N/A speed=19.2x    frame= 5107 fps=449 q=-0.0 size=N/A time=00:03:33.00 bitrate=N/A speed=18.7x    frame= 5262 fps=443 q=-0.0 size=N/A time=00:03:39.46 bitrate=N/A speed=18.5x    frame= 5377 fps=433 q=-0.0 size=N/A time=00:03:44.26 bitrate=N/A speed=18.1x    frame= 5517 fps=427 q=-0.0 size=N/A time=00:03:50.10 bitrate=N/A speed=17.8x    frame= 5669 fps=422 q=-0.0 size=N/A time=00:03:56.44 bitrate=N/A speed=17.6x    frame= 5852 fps=419 q=-0.0 size=N/A time=00:04:04.07 bitrate=N/A speed=17.5x    frame= 6013 fps=415 q=-0.0 size=N/A time=00:04:10.79 bitrate=N/A speed=17.3x    frame= 6157 fps=411 q=-0.0 size=N/A time=00:04:16.79 bitrate=N/A speed=17.1x    frame= 6281 fps=405 q=-0.0 size=N/A time=00:04:21.97 bitrate=N/A speed=16.9x    frame= 6390 fps=399 q=-0.0 size=N/A time=00:04:26.51 bitrate=N/A speed=16.6x    frame= 6496 fps=393 q=-0.0 size=N/A time=00:04:30.93 bitrate=N/A speed=16.4x    frame= 6650 fps=390 q=-0.0 size=N/A time=00:04:37.36 bitrate=N/A speed=16.3x    frame= 6794 fps=387 q=-0.0 size=N/A time=00:04:43.36 bitrate=N/A speed=16.1x    frame= 7015 fps=388 q=-0.0 size=N/A time=00:04:52.58 bitrate=N/A speed=16.2x    frame= 7205 fps=388 q=-0.0 size=N/A time=00:05:00.50 bitrate=N/A speed=16.2x    frame= 7433 fps=389 q=-0.0 size=N/A time=00:05:10.01 bitrate=N/A speed=16.2x    frame= 7690 fps=392 q=-0.0 size=N/A time=00:05:20.73 bitrate=N/A speed=16.3x    frame= 7912 fps=393 q=-0.0 size=N/A time=00:05:29.99 bitrate=N/A speed=16.4x    frame= 8128 fps=394 q=-0.0 size=N/A time=00:05:39.00 bitrate=N/A speed=16.4x    frame= 8358 fps=395 q=-0.0 size=N/A time=00:05:48.59 bitrate=N/A speed=16.5x    frame= 8593 fps=396 q=-0.0 size=N/A time=00:05:58.39 bitrate=N/A speed=16.5x    frame= 8864 fps=399 q=-0.0 size=N/A time=00:06:09.70 bitrate=N/A speed=16.6x    frame= 9146 fps=403 q=-0.0 size=N/A time=00:06:21.46 bitrate=N/A speed=16.8x    frame= 9407 fps=405 q=-0.0 size=N/A time=00:06:32.35 bitrate=N/A speed=16.9x    frame= 9693 fps=408 q=-0.0 size=N/A time=00:06:44.27 bitrate=N/A speed=  17x    frame= 9972 fps=411 q=-0.0 size=N/A time=00:06:55.91 bitrate=N/A speed=17.1x    frame=10186 fps=411 q=-0.0 size=N/A time=00:07:04.84 bitrate=N/A speed=17.1x    frame=10453 fps=413 q=-0.0 size=N/A time=00:07:15.97 bitrate=N/A speed=17.2x    frame=10689 fps=414 q=-0.0 size=N/A time=00:07:25.82 bitrate=N/A speed=17.3x    frame=10926 fps=415 q=-0.0 size=N/A time=00:07:35.70 bitrate=N/A speed=17.3x    frame=11181 fps=417 q=-0.0 size=N/A time=00:07:46.34 bitrate=N/A speed=17.4x    frame=11465 fps=419 q=-0.0 size=N/A time=00:07:58.18 bitrate=N/A speed=17.5x    frame=11733 fps=421 q=-0.0 size=N/A time=00:08:09.36 bitrate=N/A speed=17.6x    frame=11986 fps=422 q=-0.0 size=N/A time=00:08:19.91 bitrate=N/A speed=17.6x    frame=12220 fps=423 q=-0.0 size=N/A time=00:08:29.67 bitrate=N/A speed=17.6x    frame=12488 fps=424 q=-0.0 size=N/A time=00:08:40.85 bitrate=N/A speed=17.7x    frame=12759 fps=426 q=-0.0 size=N/A time=00:08:52.15 bitrate=N/A speed=17.8x    frame=13015 fps=427 q=-0.0 size=N/A time=00:09:02.83 bitrate=N/A speed=17.8x    frame=13281 fps=429 q=-0.0 size=N/A time=00:09:13.92 bitrate=N/A speed=17.9x    frame=13551 fps=430 q=-0.0 size=N/A time=00:09:25.18 bitrate=N/A speed=17.9x    frame=13829 fps=432 q=-0.0 size=N/A time=00:09:36.78 bitrate=N/A speed=  18x    frame=14125 fps=434 q=-0.0 size=N/A time=00:09:49.13 bitrate=N/A speed=18.1x    frame=14402 fps=436 q=-0.0 size=N/A time=00:10:00.68 bitrate=N/A speed=18.2x    frame=14691 fps=438 q=-0.0 size=N/A time=00:10:12.73 bitrate=N/A speed=18.3x    frame=14914 fps=438 q=-0.0 size=N/A time=00:10:22.03 bitrate=N/A speed=18.3x    frame=15182 fps=439 q=-0.0 size=N/A time=00:10:33.21 bitrate=N/A speed=18.3x    frame=15460 fps=441 q=-0.0 size=N/A time=00:10:44.81 bitrate=N/A speed=18.4x    frame=15740 fps=442 q=-0.0 size=N/A time=00:10:56.48 bitrate=N/A speed=18.4x    frame=16015 fps=443 q=-0.0 size=N/A time=00:11:07.95 bitrate=N/A speed=18.5x    frame=16313 fps=445 q=-0.0 size=N/A time=00:11:20.38 bitrate=N/A speed=18.6x    frame=16573 fps=446 q=-0.0 size=N/A time=00:11:31.23 bitrate=N/A speed=18.6x    frame=16867 fps=447 q=-0.0 size=N/A time=00:11:43.49 bitrate=N/A speed=18.7x    frame=17155 fps=449 q=-0.0 size=N/A time=00:11:55.50 bitrate=N/A speed=18.7x    frame=17394 fps=449 q=-0.0 size=N/A time=00:12:05.47 bitrate=N/A speed=18.7x    frame=17678 fps=450 q=-0.0 size=N/A time=00:12:17.31 bitrate=N/A speed=18.8x    frame=17945 fps=451 q=-0.0 size=N/A time=00:12:28.45 bitrate=N/A speed=18.8x    frame=18225 fps=453 q=-0.0 size=N/A time=00:12:40.13 bitrate=N/A speed=18.9x    frame=18490 fps=453 q=-0.0 size=N/A time=00:12:51.18 bitrate=N/A speed=18.9x    frame=18763 fps=454 q=-0.0 size=N/A time=00:13:02.57 bitrate=N/A speed=  19x    frame=19043 fps=455 q=-0.0 size=N/A time=00:13:14.25 bitrate=N/A speed=  19x    frame=19337 fps=457 q=-0.0 size=N/A time=00:13:26.51 bitrate=N/A speed=  19x    frame=19609 fps=458 q=-0.0 size=N/A time=00:13:37.85 bitrate=N/A speed=19.1x    frame=19884 fps=458 q=-0.0 size=N/A time=00:13:49.32 bitrate=N/A speed=19.1x    frame=20159 fps=459 q=-0.0 size=N/A time=00:14:00.79 bitrate=N/A speed=19.2x    frame=20453 fps=461 q=-0.0 size=N/A time=00:14:13.06 bitrate=N/A speed=19.2x    frame=20731 fps=462 q=-0.0 size=N/A time=00:14:24.65 bitrate=N/A speed=19.3x    frame=21012 fps=463 q=-0.0 size=N/A time=00:14:36.37 bitrate=N/A speed=19.3x    frame=21296 fps=464 q=-0.0 size=N/A time=00:14:48.26 bitrate=N/A speed=19.3x    frame=21588 fps=465 q=-0.0 size=N/A time=00:15:00.39 bitrate=N/A speed=19.4x    frame=21813 fps=464 q=-0.0 size=N/A time=00:15:09.78 bitrate=N/A speed=19.4x    frame=22074 fps=465 q=-0.0 size=N/A time=00:15:20.66 bitrate=N/A speed=19.4x    frame=22336 fps=465 q=-0.0 size=N/A time=00:15:31.59 bitrate=N/A speed=19.4x    frame=22603 fps=466 q=-0.0 size=N/A time=00:15:42.73 bitrate=N/A speed=19.4x    frame=22853 fps=466 q=-0.0 size=N/A time=00:15:53.16 bitrate=N/A speed=19.4x    frame=23124 fps=467 q=-0.0 size=N/A time=00:16:04.46 bitrate=N/A speed=19.5x    frame=23380 fps=467 q=-0.0 size=N/A time=00:16:15.14 bitrate=N/A speed=19.5x    frame=23656 fps=468 q=-0.0 size=N/A time=00:16:26.65 bitrate=N/A speed=19.5x    frame=23926 fps=468 q=-0.0 size=N/A time=00:16:37.91 bitrate=N/A speed=19.5x    frame=24203 fps=469 q=-0.0 size=N/A time=00:16:49.46 bitrate=N/A speed=19.6x    frame=24485 fps=470 q=-0.0 size=N/A time=00:17:01.22 bitrate=N/A speed=19.6x    frame=24756 fps=470 q=-0.0 size=N/A time=00:17:12.53 bitrate=N/A speed=19.6x    frame=25013 fps=471 q=-0.0 size=N/A time=00:17:23.25 bitrate=N/A speed=19.6x    frame=25294 fps=471 q=-0.0 size=N/A time=00:17:34.97 bitrate=N/A speed=19.7x    frame=25561 fps=472 q=-0.0 size=N/A time=00:17:46.10 bitrate=N/A speed=19.7x    frame=25826 fps=472 q=-0.0 size=N/A time=00:17:57.15 bitrate=N/A speed=19.7x    frame=26098 fps=473 q=-0.0 size=N/A time=00:18:08.50 bitrate=N/A speed=19.7x    frame=26371 fps=473 q=-0.0 size=N/A time=00:18:19.89 bitrate=N/A speed=19.7x    frame=26655 fps=474 q=-0.0 size=N/A time=00:18:31.73 bitrate=N/A speed=19.8x    frame=26943 fps=475 q=-0.0 size=N/A time=00:18:43.74 bitrate=N/A speed=19.8x    frame=27226 fps=475 q=-0.0 size=N/A time=00:18:55.55 bitrate=N/A speed=19.8x    frame=27503 fps=476 q=-0.0 size=N/A time=00:19:07.10 bitrate=N/A speed=19.8x    frame=27788 fps=476 q=-0.0 size=N/A time=00:19:18.99 bitrate=N/A speed=19.9x    frame=28069 fps=477 q=-0.0 size=N/A time=00:19:30.71 bitrate=N/A speed=19.9x    frame=28333 fps=477 q=-0.0 size=N/A time=00:19:41.72 bitrate=N/A speed=19.9x    frame=28623 fps=478 q=-0.0 size=N/A time=00:19:53.81 bitrate=N/A speed=19.9x    frame=28889 fps=479 q=-0.0 size=N/A time=00:20:04.91 bitrate=N/A speed=  20x    frame=29171 fps=479 q=-0.0 size=N/A time=00:20:16.67 bitrate=N/A speed=  20x    frame=29467 fps=480 q=-0.0 size=N/A time=00:20:29.01 bitrate=N/A speed=  20x    frame=29743 fps=480 q=-0.0 size=N/A time=00:20:40.53 bitrate=N/A speed=  20x    frame=30026 fps=481 q=-0.0 size=N/A time=00:20:52.33 bitrate=N/A speed=20.1x    frame=30301 fps=481 q=-0.0 size=N/A time=00:21:03.80 bitrate=N/A speed=20.1x    frame=30577 fps=482 q=-0.0 size=N/A time=00:21:15.31 bitrate=N/A speed=20.1x    frame=30843 fps=482 q=-0.0 size=N/A time=00:21:26.41 bitrate=N/A speed=20.1x    frame=31079 fps=482 q=-0.0 size=N/A time=00:21:36.25 bitrate=N/A speed=20.1x    frame=31362 fps=482 q=-0.0 size=N/A time=00:21:48.05 bitrate=N/A speed=20.1x    frame=31625 fps=483 q=-0.0 size=N/A time=00:21:59.02 bitrate=N/A speed=20.1x    frame=31891 fps=483 q=-0.0 size=N/A time=00:22:10.12 bitrate=N/A speed=20.1x    frame=32149 fps=483 q=-0.0 size=N/A time=00:22:20.88 bitrate=N/A speed=20.1x    frame=32376 fps=483 q=-0.0 size=N/A time=00:22:30.34 bitrate=N/A speed=20.1x    frame=32591 fps=482 q=-0.0 size=N/A time=00:22:39.31 bitrate=N/A speed=20.1x    frame=32762 fps=481 q=-0.0 size=N/A time=00:22:46.44 bitrate=N/A speed=20.1x    frame=32946 fps=480 q=-0.0 size=N/A time=00:22:54.12 bitrate=N/A speed=  20x    frame=33157 fps=480 q=-0.0 size=N/A time=00:23:02.92 bitrate=N/A speed=  20x    frame=33352 fps=479 q=-0.0 size=N/A time=00:23:11.05 bitrate=N/A speed=  20x    frame=33588 fps=479 q=-0.0 size=N/A time=00:23:20.89 bitrate=N/A speed=  20x    frame=33832 fps=479 q=-0.0 size=N/A time=00:23:31.07 bitrate=N/A speed=  20x    frame=34068 fps=478 q=-0.0 size=N/A time=00:23:40.91 bitrate=N/A speed=  20x    [Parsed_ssim_10 @ 0000018e32bb0380] SSIM Y:0.995274 (23.255423) U:0.995787 (23.753757) V:0.995141 (23.134968) All:0.995338 (23.313926)
[out#0/null @ 0000018e32bc55c0] video:14707KiB audio:267740KiB subtitle:0KiB other streams:0KiB global headers:0KiB muxing overhead: unknown
frame=34228 fps=478 q=-0.0 Lsize=N/A time=00:23:47.59 bitrate=N/A speed=  20x    
